:SAMPLES-PER-SECOND 30
:FULLY-SPECIFIED
:DEGREES
125
root  -3.58473 39.8785 -0.579876 9.30713 -86.5972 -21.9317
RightUpLeg  10.0675 -5.5657 0.196137
RightLeg  16.106 -16.4276 -4.77716
RightFoot  -12.1476 -0.0472845 4.96186
RightToes  -3.13006e-008 1.75238e-005 3.56266e-009
Spine  -7.27481 -0.245807 0.363476
Spine1  23.7882 -0.552871 1.4985
HEad  -6.8416 -3.18532 5.26864
LeftShoulder1  2.44514 -5.27752 -21.482
LeftArm  -16.4364 -15.0664 -43.0829
LeftForeArm  -165.848 -66.4048 -160.184
LeftHand  -1.75133 -4.81828 20.035
RightShoulder  2.70711 6.24792 21.4833
RightArm  -17.8192 14.3666 36.5629
RightForeArm  -178.353 60.7448 163.378
RightHand  -3.54981 10.7558 -25.4498
LeftUpLeg  8.06978 2.5591 5.47886
LeftLeg  18.357 6.19608 2.61662
LeftFoot  -13.3894 -0.0183105 -5.53055
LeftToes  4.78685e-008 1.46778e-008 1.34523e-009
126
root  -3.61634 39.7101 -0.605224 12.4157 -86.5589 -25.5943
RightUpLeg  9.81901 -6.68654 0.119469
RightLeg  18.0739 -15.1742 -5.21744
RightFoot  -13.4254 0.00408683 5.24212
RightToes  -3.13006e-008 1.75238e-005 3.56266e-009
Spine  -6.65352 -0.104199 0.350711
Spine1  24.0913 -0.442772 1.60381
HEad  -9.35884 -3.20525 5.01261
LeftShoulder1  2.76229 -6.07211 -22.5679
LeftArm  -13.4491 -13.2179 -43.7068
LeftForeArm  -161.403 -64.6011 -162.124
LeftHand  -1.86045 -5.72156 19.5895
RightShoulder  2.91808 6.72093 22.3149
RightArm  -14.4143 13.8267 36.6894
RightForeArm  -174.531 60.6144 163.799
RightHand  -3.5436 10.7413 -25.4225
LeftUpLeg  7.78306 2.64776 5.8711
LeftLeg  20.4157 5.85281 2.73552
LeftFoot  -14.987 -0.0899133 -5.65452
LeftToes  4.78685e-008 1.46778e-008 1.34523e-009
127
root  -3.63739 39.6298 -0.633027 12.5143 -86.7639 -25.1473
RightUpLeg  8.63699 -7.46881 -0.0930316
RightLeg  19.3376 -14.0381 -5.42214
RightFoot  -14.1353 0.0326358 5.27799
RightToes  -3.13006e-008 1.75238e-005 3.56266e-009
Spine  -5.45946 0.0866397 0.272258
Spine1  22.4554 -0.210166 1.45117
HEad  -11.7934 -3.01497 4.59465
LeftShoulder1  2.77829 -6.15707 -22.4646
LeftArm  -11.1307 -14.1675 -43.7752
LeftForeArm  -159.523 -63.1382 -163.39
LeftHand  -1.82318 -6.43221 18.0931
RightShoulder  2.92279 6.70978 22.3924
RightArm  -11.8243 15.8047 35.7239
RightForeArm  -174.888 60.1593 164.057
RightHand  -3.32796 10.9594 -23.6498
LeftUpLeg  6.83028 3.22965 5.95342
LeftLeg  21.34 5.49216 2.69333
LeftFoot  -15.5385 -0.107616 -5.47043
LeftToes  4.78685e-008 1.46778e-008 1.34523e-009
128
root  -3.62111 39.6841 -0.682993 11.2316 -86.3935 -21.8237
RightUpLeg  6.41915 -7.62234 0.099982
RightLeg  19.2054 -14.1538 -5.25025
RightFoot  -13.6009 0.00770228 5.05797
RightToes  -3.13006e-008 1.75238e-005 3.56266e-009
Spine  -4.24525 0.217931 -0.201751
Spine1  19.0408 -0.213123 2.17571
HEad  -12.9413 -3.73034 4.13575
LeftShoulder1  2.77147 -6.30671 -21.9271
LeftArm  -10.6444 -18.5516 -43.2644
LeftForeArm  -159.218 -62.7736 -163.669
LeftHand  -1.65409 -6.48512 16.37
RightShoulder  2.73857 6.4903 21.0932
RightArm  -10.939 19.3796 34.1501
RightForeArm  -171.265 60.2578 164.306
RightHand  -3.3392 11.2184 -23.3833
LeftUpLeg  4.61858 3.87582 6.0438
LeftLeg  20.9392 4.66457 2.30282
LeftFoot  -14.5519 -0.055318 -5.07247
LeftToes  4.78685e-008 1.46778e-008 1.34523e-009
129
root  -3.54237 39.9062 -0.751679 8.26599 -85.7701 -15.1952
RightUpLeg  3.13869 -7.38219 0.258367
RightLeg  17.3452 -15.1565 -4.45281
RightFoot  -11.8268 -0.0600657 4.29714
RightToes  -3.13006e-008 1.75238e-005 3.56266e-009
Spine  -2.35193 0.273148 -0.976002
Spine1  13.0072 -0.289368 2.87758
HEad  -13.2097 -4.35991 3.31733
LeftShoulder1  2.72979 -6.4592 -21.0149
LeftArm  -12.5096 -24.464 -43.1044
LeftForeArm  -162.045 -63.5249 -162.883
LeftHand  -1.36503 -6.22867 13.9251
RightShoulder  2.48952 6.12293 19.4444
RightArm  -11.524 24.068 32.2716
RightForeArm  -167.467 61.4916 163.83
RightHand  -3.43779 10.4017 -25.1894
LeftUpLeg  1.29035 4.00502 5.57095
LeftLeg  18.7336 4.22432 1.92375
LeftFoot  -12.2203 0.0379606 -4.72784
LeftToes  4.78685e-008 1.46778e-008 1.34523e-009
130
root  -3.37776 40.2768 -0.808438 5.63253 -85.0229 -8.05139
RightUpLeg  -0.456661 -5.30669 0.325525
RightLeg  13.8607 -18.188 -3.12632
RightFoot  -8.51938 -0.147025 3.53157
RightToes  -3.13006e-008 1.75238e-005 3.56266e-009
Spine  0.678479 0.10306 -0.80975
Spine1  5.29195 -0.227899 2.23619
HEad  -13.5815 -4.01545 2.62583
LeftShoulder1  2.53639 -6.37232 -19.1864
LeftArm  -15.5767 -30.3783 -43.9932
LeftForeArm  -168.277 -65.6936 -160.579
LeftHand  -1.35043 -5.75386 14.3098
RightShoulder  2.24004 5.78637 17.5488
RightArm  -14.4667 29.0029 31.0837
RightForeArm  -168.435 63.5361 162.321
RightHand  -3.79167 11.1785 -26.4477
LeftUpLeg  -1.87182 3.75237 4.77731
LeftLeg  13.9334 4.39177 1.40667
LeftFoot  -8.51183 0.149766 -4.22517
LeftToes  4.78685e-008 1.46778e-008 1.34523e-009
131
root  -3.11456 40.6918 -0.849457 8.38178 -83.9019 -6.631
RightUpLeg  -3.57705 -2.64831 0.386109
RightLeg  9.73291 -21.8061 -1.41968
RightFoot  -3.96321 -0.245468 3.40822
RightToes  -3.13006e-008 1.75238e-005 3.56266e-009
Spine  4.45109 -0.191942 0.869853
Spine1  -1.95682 -0.203415 0.529351
HEad  -14.648 -4.4326 2.34955
LeftShoulder1  2.33481 -6.27893 -17.1944
LeftArm  -20.3053 -37.4849 -44.6472
LeftForeArm  -175.879 -68.6539 -156.796
LeftHand  -1.16258 -5.16429 13.0562
RightShoulder  1.90723 5.43139 14.5219
RightArm  -20.8882 33.5919 30.3653
RightForeArm  -173.117 65.5321 160.224
RightHand  -3.80437 11.2497 -26.4445
LeftUpLeg  -4.3299 2.33095 4.50201
LeftLeg  7.99794 5.5335 0.720978
LeftFoot  -3.66692 0.255144 -3.40188
LeftToes  4.78685e-008 1.46778e-008 1.34523e-009
